<svg xmlns:xlink="http://www.w3.org/1999/xlink" xmlns="http://www.w3.org/2000/svg" viewBox="0 0 24 24" aria-hidden="true" class="r-4qtqp9 r-yyyyoo r-z80fyv r-dnmrzs r-bnwqim r-1plcrui r-lrvibr r-19wmn03" style="color: rgb(239, 243, 244);" width="24"  height="24" ><g fill="#EFF3F4"><path d="M12 18.042c-.553 0-1-.447-1-1v-5.5c0-.553.447-1 1-1s1 .447 1 1v5.5c0 .553-.447 1-1 1z" fill="#EFF3F4"></path><circle cx="12" cy="8.042" r="1.25" fill="#EFF3F4"></circle><path d="M12 22.75C6.072 22.75 1.25 17.928 1.25 12S6.072 1.25 12 1.25 22.75 6.072 22.75 12 17.928 22.75 12 22.75zm0-20C6.9 2.75 2.75 6.9 2.75 12S6.9 21.25 12 21.25s9.25-4.15 9.25-9.25S17.1 2.75 12 2.75z" fill="#EFF3F4"></path></g></svg>